<svg xmlns="http://www.w3.org/2000/svg" viewBox="-1 -1 2907 963" role="img" aria-label="Open Mind Travel">
<g fill="currentColor" transform="matrix(1 0 0 -1 0 961.128)">
<path d="M179.8894 725.1004 C232.2502 725.1004 276.0985 707.5930 311.3535 672.6591 C346.6086 637.7253 364.2763 594.6800 364.2763 543.6045 C364.2763 492.9301 346.6891 449.9654 311.5140 414.7101 C276.2589 379.4553 233.3747 361.7872 182.7000 361.7872 C131.4638 361.7872 88.1779 379.3748 52.9228 414.4694 C17.6678 449.5640 0.0000 492.0466 0.0000 541.9179 C0.0000 575.1655 8.0308 605.9234 24.0922 634.3523 C40.1536 662.7010 62.0779 684.9462 89.8642 701.0079 C117.5706 717.0695 147.6057 725.1004 179.8894 725.1004 Z M181.4156 691.3709 C155.8774 691.3709 131.6245 684.7053 108.6565 671.3742 C85.7687 658.0431 67.8600 640.1347 54.9306 617.5678 C42.0814 594.9213 35.6564 569.7848 35.6564 541.9984 C35.6564 500.9610 49.8708 466.2677 78.3802 437.9995 C106.8894 409.6508 141.2612 395.5167 181.4156 395.5167 C208.3187 395.5167 233.1334 402.0216 255.9410 415.0315 C278.8285 428.0414 296.6570 445.8696 309.4260 468.4363 C322.1949 491.0029 328.6196 516.0589 328.6196 543.6848 C328.6196 571.1502 322.1949 595.9653 309.4260 618.1299 C296.6570 640.2951 278.5878 658.0431 255.3789 671.3742 C232.1700 684.7053 207.5153 691.3709 181.4156 691.3709"/>
<path d="M472.4260 716.4269 L541.4105 716.4269 C580.9221 716.4269 607.6644 714.7406 621.4776 711.2871 C641.2331 706.3886 657.3753 696.4302 669.9033 681.2521 C682.5112 666.1542 688.7755 647.1213 688.7755 624.2335 C688.7755 601.1853 682.6720 582.2325 670.3852 567.2149 C658.1784 552.2777 641.3136 542.2394 619.8712 537.0191 C604.1310 533.2448 574.8185 531.3977 531.8541 531.3977 L507.1192 531.3977 L507.1192 370.4607 L472.4260 370.4607 Z Z M507.1192 682.6978 L507.1192 565.1269 L565.7440 564.4040 C589.4348 564.4040 606.7814 566.5725 617.7835 570.9090 C628.7856 575.2457 637.4588 582.1520 643.7228 591.7893 C649.9868 601.4262 653.1188 612.2676 653.1188 624.1530 C653.1188 635.7175 649.9868 646.3984 643.7228 656.0354 C637.4588 665.6723 629.1065 672.4984 618.8275 676.5942 C608.5480 680.6900 591.7635 682.6978 568.3136 682.6978 Z"/>
<path d="M796.7648 716.4269 L994.8039 716.4269 L994.8039 682.6978 L831.4577 682.6978 L831.4577 574.2822 L993.3582 574.2822 L993.3582 540.5528 L831.4577 540.5528 L831.4577 404.1899 L993.3582 404.1899 L993.3582 370.4607 L796.7648 370.4607 Z"/>
<path d="M1093.7985 370.4607 L1093.7985 716.4269 L1101.2672 716.4269 L1331.3492 451.8125 L1331.3492 716.4269 L1366.0421 716.4269 L1366.0421 370.4607 L1358.1723 370.4607 L1129.4549 632.7462 L1129.4549 370.4607 Z"/>
<path d="M2069.0683 716.4269 L2103.7612 716.4269 L2103.7612 370.4607 L2069.0683 370.4607 Z"/>
<path d="M2221.9492 370.4607 L2221.9492 716.4269 L2229.4179 716.4269 L2459.5002 451.8125 L2459.5002 716.4269 L2494.1928 716.4269 L2494.1928 370.4607 L2486.3227 370.4607 L2257.6059 632.7462 L2257.6059 370.4607 Z"/>
<path d="M2613.4313 370.4607 L2613.4313 716.4269 L2685.2270 716.4269 C2736.9451 716.4269 2774.5291 712.2509 2797.8990 703.9791 C2831.4677 692.1740 2857.7282 671.8561 2876.6004 642.7845 C2895.4729 613.7935 2904.9494 579.2610 2904.9494 539.1074 C2904.9494 504.4141 2897.4804 473.9774 2882.4627 447.6365 C2867.5259 421.2955 2848.0110 401.7807 2824.1597 389.2527 C2800.2280 376.7247 2766.6590 370.4607 2723.5338 370.4607 Z Z M2646.6789 403.2261 L2686.5921 403.2261 C2734.2950 403.2261 2767.3016 406.1976 2785.7724 412.1402 C2811.7117 420.6532 2832.1903 435.8313 2847.0472 457.8355 C2861.9042 479.9203 2869.2924 506.8233 2869.2924 538.6252 C2869.2924 571.9530 2861.2616 600.5426 2845.1197 624.1530 C2829.0583 647.8441 2806.5722 664.0662 2777.8218 672.8196 C2756.2190 679.4050 2720.6427 682.6978 2671.0929 682.6978 L2646.6789 682.6978 Z"/>
<path d="M2146.0615 126.6460 L2157.5761 126.6460 L2157.5761 93.1190 L2175.8638 93.1190 L2175.8638 83.1283 L2157.5761 83.1283 L2157.5761 3.2046 L2146.0615 3.2046 L2146.0615 83.1283 L2130.3139 83.1283 L2130.3139 93.1190 L2146.0615 93.1190 Z Z M2254.2009 93.1190 L2266.0540 93.1190 L2266.0540 79.9676 C2269.5817 85.1601 2273.3070 88.9982 2277.2302 91.5384 C2281.1525 94.0501 2285.2449 95.3201 2289.4784 95.3201 C2292.6954 95.3201 2296.1103 94.3041 2299.7509 92.2720 L2293.7114 82.5639 C2291.2841 83.6082 2289.2522 84.1445 2287.5871 84.1445 C2283.7209 84.1445 2279.9954 82.5639 2276.4115 79.4030 C2272.8274 76.2420 2270.0897 71.3032 2268.1990 64.6432 C2266.7598 59.5349 2266.0540 49.1777 2266.0540 33.5993 L2266.0540 3.2046 L2254.2009 3.2046 Z Z M2464.2771 93.1190 L2464.2771 3.2046 L2452.7628 3.2046 L2452.7628 18.6701 C2447.9084 12.7718 2442.4900 8.3409 2436.4505 5.4057 C2430.4397 2.4707 2423.8352 1.0032 2416.6956 1.0032 C2403.9958 1.0032 2393.1300 5.6032 2384.1275 14.8037 C2375.1247 24.0321 2370.6377 35.2077 2370.6377 48.4157 C2370.6377 61.3128 2375.1814 72.3759 2384.2689 81.5479 C2393.3276 90.7200 2404.2498 95.3201 2417.0340 95.3201 C2424.3996 95.3201 2431.0602 93.7678 2437.0432 90.6636 C2442.9980 87.5591 2448.2472 82.8743 2452.7628 76.5808 L2452.7628 93.1190 Z Z M2417.9372 84.1445 C2411.5025 84.1445 2405.5478 82.5639 2400.1294 79.4030 C2394.6826 76.2704 2390.3649 71.8396 2387.1475 66.1388 C2383.9302 60.4380 2382.3213 54.3986 2382.3213 48.0206 C2382.3213 41.7271 2383.9302 35.6876 2387.1756 29.9305 C2390.4207 24.1733 2394.7671 19.6860 2400.2422 16.4968 C2405.7173 13.2797 2411.5870 11.6711 2417.8527 11.6711 C2424.1459 11.6711 2430.1568 13.2514 2435.8014 16.4404 C2441.4741 19.6296 2445.8202 23.9190 2448.8680 29.3661 C2451.9161 34.7845 2453.4397 40.9085 2453.4397 47.7102 C2453.4397 58.0674 2450.0251 66.7315 2443.1672 73.7022 C2436.3377 80.6729 2427.9276 84.1445 2417.9372 84.1445 Z M2547.0731 93.1190 L2559.1805 93.1190 L2589.4621 27.4751 L2619.5185 93.1190 L2631.9078 93.1190 L2590.7607 3.2046 L2588.5593 3.2046 Z Z M2790.4510 33.0066 L2800.2158 27.8702 C2796.9987 21.6332 2793.3012 16.5815 2789.0963 12.7434 C2784.8911 8.9337 2780.1785 5.9984 2774.9293 3.9949 C2769.6518 1.9911 2763.7251 1.0032 2757.0929 1.0032 C2742.3615 1.0032 2730.8750 5.8008 2722.5780 15.3964 C2714.2809 24.9917 2710.1324 35.8288 2710.1324 47.9078 C2710.1324 59.2809 2713.6599 69.4409 2720.6872 78.3306 C2729.5770 89.6474 2741.5148 95.3201 2756.4437 95.3201 C2771.8245 95.3201 2784.1294 89.5065 2793.3012 77.9074 C2799.8206 69.7229 2803.1511 59.5069 2803.2636 47.2303 L2721.9852 47.2303 C2722.2109 36.8167 2725.5696 28.2934 2732.0321 21.6615 C2738.5231 15.0012 2746.5381 11.6711 2756.0489 11.6711 C2760.6489 11.6711 2765.1362 12.4611 2769.4823 14.0417 C2773.8283 15.6220 2777.5256 17.7106 2780.5734 20.3352 C2783.6215 22.9595 2786.9233 27.1647 2790.4510 33.0066 Z M2790.5641 57.2210 C2789.0116 63.4014 2786.7540 68.3118 2783.7907 72.0088 C2780.7990 75.7060 2776.8764 78.6694 2771.9943 80.9271 C2767.1117 83.1849 2761.9753 84.3137 2756.6133 84.3137 C2747.7232 84.3137 2740.1037 81.4915 2733.7255 75.8188 C2729.0409 71.6700 2725.5413 65.4897 2723.1423 57.2210 Z Z M2888.0351 127.8312 L2899.5500 127.8312 L2899.5500 3.2046 L2888.0351 3.2046 Z"/>
<path fill-rule="evenodd" d="M1666.3079 576.3073 L1664.8106 579.2964 C1655.6865 602.4475 1668.4625 704.2260 1645.6666 723.9453 C1631.0089 736.6207 1602.1548 730.0270 1586.0557 714.8954 C1570.7940 700.5532 1560.2763 685.1642 1550.3539 665.3364 C1516.6531 597.9742 1468.8592 481.1168 1468.8592 408.0277 C1468.8592 385.7831 1464.7252 365.3960 1477.8349 365.3960 C1487.1926 365.3960 1498.4657 399.0070 1502.8359 409.9518 L1533.2692 487.2144 C1544.3385 512.8804 1556.3857 533.6810 1570.5264 557.6584 C1602.6347 612.1097 1590.8947 583.5365 1603.7478 509.2603 C1608.8306 479.9055 1626.0800 419.2455 1657.3323 419.2455 C1698.2702 419.2455 1714.9181 461.8905 1727.8637 494.5552 C1741.3050 528.4655 1752.9917 561.9359 1765.3147 596.2173 C1777.7911 630.9198 1790.3923 662.1959 1804.7716 695.8732 C1812.2445 713.3820 1845.9828 776.8831 1857.0257 784.9738 C1839.0475 707.8354 1859.8105 465.5370 1871.4577 386.5620 C1886.0995 287.3013 1913.8561 138.0359 1953.5275 49.0547 C1969.3037 13.6684 1994.6381 -11.0968 2035.6455 5.0343 C2060.2990 14.7311 2055.0416 19.3924 2055.0835 19.1064 C2055.1289 18.8067 2055.5501 20.2932 2055.5952 20.6246 L2053.9046 37.2008 C2052.8045 42.8190 2051.0821 49.9980 2049.0627 57.0869 C2045.1274 70.9152 2040.6385 82.6574 2036.2365 95.8654 C1986.2323 245.9256 1960.4126 346.4906 1940.4445 511.6428 C1922.4581 660.4126 1923.0786 688.6037 1924.7238 811.4664 C1925.0286 834.2385 1929.2477 891.8059 1917.5318 902.1781 C1838.5095 972.1454 1704.6068 676.0877 1687.4688 633.6760 Z"/>
<path fill-rule="evenodd" d="M1576.0307 961.1280 C1618.8211 961.1280 1653.5100 926.4393 1653.5100 883.6489 C1653.5100 840.8585 1618.8211 806.1695 1576.0307 806.1695 C1533.2403 806.1695 1498.5516 840.8585 1498.5516 883.6489 C1498.5516 926.4393 1533.2403 961.1280 1576.0307 961.1280 Z M1576.0307 921.6950 C1597.0431 921.6950 1614.0767 904.6610 1614.0767 883.6489 C1614.0767 862.6365 1597.0431 845.6029 1576.0307 845.6029 C1555.0186 845.6029 1537.9846 862.6365 1537.9846 883.6489 C1537.9846 904.6610 1555.0186 921.6950 1576.0307 921.6950"/>
</g>
</svg>
